# xmcd
#
# Track frame offsets:
#	150
#	15979
#	30931
#	44462
#	57488
#	77497
#	88447
#	103141
#	114645
#	128583
#	143246
#	155408
#
# Disc length: 2251 seconds
#
# Revision: 1
# Processed by: cddbd v1.5.2PL0 Copyright (c) Steve Scherf et al.
# Submitted via: audiograbber 1.83.01
#
DISCID=9608c90c
DTITLE=Leona Williams - A Taste Of Life
DYEAR=1900
DGENRE=Country
TTITLE0=No love Line
TTITLE1=The Way It Was
TTITLE2=Taste Of Life
TTITLE3=Honky Tonk Moon
TTITLE4=I've Got To Stop Lovin' You
TTITLE5=Good Morning
TTITLE6=You Weren't There
TTITLE7=Rock Me To Sleep
TTITLE8=Home Is Where My Heart Lies
TTITLE9=The Miracle
TTITLE10=Virginia
TTITLE11=Dad's Old Fiddle
EXTD=
EXTT0=
EXTT1=
EXTT2=
EXTT3=
EXTT4=
EXTT5=
EXTT6=
EXTT7=
EXTT8=
EXTT9=
EXTT10=
EXTT11=
PLAYORDER=
